<svg version="1.1" id="Layer_1" xmlns="http://www.w3.org/2000/svg" xmlns:xlink="http://www.w3.org/1999/xlink" x="0px" y="0px"
	 viewBox="0 0 421.5 112.5" style="enable-background:new 0 0 421.5 112.5;" xml:space="preserve">
<style type="text/css">
	.st0{fill:#228ACB;}
	.st1{fill:#154D9C;}
</style>
<g>
	<path class="st0" d="M118.8,62.6h-17.7v17.2h-5.3V40.9h25.7V45h-20.5v13.4h17.7V62.6z"/>
	<path class="st0" d="M131.8,79.8h-5.3V38.1h5.3V79.8z"/>
	<path class="st0" d="M148.2,69.1l0.9,3.6h0.2l7.1-21.8h5.9l-12.2,33.3c-0.7,1.9-1.8,3.6-3.1,5.1c-1.4,1.4-3.2,2.2-5.5,2.2
		c-0.4,0-1,0-1.6-0.1c-0.7-0.1-1.2-0.2-1.5-0.3l0.5-4.1c-0.1,0,0.2,0,0.9,0.1c0.7,0.1,1.2,0.1,1.4,0.1c1.1,0,2-0.5,2.8-1.5
		c0.7-1,1.3-2.1,1.8-3.3l1.3-3l-10.7-28.3h5.9L148.2,69.1z"/>
	<path class="st0" d="M178,80.4c-4,0-7.2-1.3-9.6-4c-2.4-2.7-3.6-6.2-3.6-10.4v-1.2c0-4.1,1.2-7.5,3.7-10.3c2.4-2.7,5.3-4.1,8.7-4.1
		c3.9,0,6.8,1.2,8.8,3.5c2,2.4,3,5.5,3,9.4v3.3h-18.8l-0.1,0.1c0.1,2.8,0.8,5,2.1,6.8c1.4,1.8,3.2,2.7,5.7,2.7
		c1.8,0,3.3-0.3,4.7-0.8c1.3-0.5,2.5-1.2,3.5-2.1l2.1,3.4c-1,1-2.4,1.9-4.1,2.6S180.4,80.4,178,80.4z M177.2,54.5
		c-1.8,0-3.3,0.7-4.5,2.2c-1.2,1.5-2,3.3-2.3,5.6l0.1,0.1h13.3v-0.7c0-2.1-0.6-3.8-1.7-5.2C181,55.2,179.4,54.5,177.2,54.5z"/>
	<path class="st0" d="M208,55.5l-2.7-0.2c-1.4,0-2.6,0.3-3.5,1c-1,0.7-1.7,1.6-2.2,2.8v20.6h-5.3V50.9h4.7l0.5,4.2
		c0.8-1.5,1.8-2.7,3-3.5c1.2-0.8,2.6-1.3,4.2-1.3c0.4,0,0.8,0,1.1,0.1c0.4,0.1,0.7,0.1,0.9,0.2L208,55.5z"/>
	<path class="st1" d="M226.6,79.8V40.9h12.7c4.1,0,7.2,0.9,9.5,2.6c2.3,1.8,3.4,4.4,3.4,7.9c0,1.7-0.6,3.3-1.7,4.6s-2.6,2.4-4.4,3
		c2.4,0.5,4.2,1.6,5.5,3.4c1.3,1.8,2,3.9,2,6.3c0,3.6-1.2,6.3-3.5,8.2c-2.3,1.9-5.4,2.8-9.4,2.8H226.6z M231.9,57.4h8.5
		c2,0,3.6-0.5,4.8-1.6c1.2-1.1,1.8-2.6,1.8-4.5c0-2.1-0.7-3.7-2-4.7c-1.3-1-3.2-1.6-5.7-1.6h-7.4V57.4z M231.9,61.6v14.1h9.1
		c2.4,0,4.2-0.6,5.6-1.8c1.3-1.2,2-2.9,2-5c0-2.3-0.6-4.1-1.7-5.3c-1.1-1.3-2.8-1.9-5.1-1.9H231.9z"/>
	<path class="st1" d="M278.4,75.5c-0.9,1.5-2.1,2.7-3.5,3.6c-1.4,0.8-3.1,1.3-4.9,1.3c-3.2,0-5.6-1-7.4-3c-1.8-2-2.6-5.1-2.6-9.4
		v-17h5.3V68c0,3.1,0.5,5.2,1.4,6.4s2.3,1.7,4.2,1.7c1.9,0,3.4-0.4,4.6-1.1s2.1-1.8,2.8-3.2V50.9h5.3v28.9h-4.7L278.4,75.5z"/>
	<path class="st1" d="M296.3,43.5H291v-5.4h5.3V43.5z M296.3,79.8H291V50.9h5.3V79.8z"/>
	<path class="st1" d="M309.5,79.8h-5.3V38.1h5.3V79.8z"/>
	<path class="st1" d="M315.9,65.9c0-4.6,1-8.4,3-11.2c2-2.8,4.8-4.3,8.3-4.3c1.7,0,3.2,0.3,4.5,0.9c1.3,0.6,2.4,1.5,3.4,2.7V38.1
		h5.3v41.7H336l-0.6-3.6c-0.9,1.4-2.1,2.4-3.5,3.1c-1.4,0.7-3,1-4.8,1c-3.5,0-6.3-1.3-8.3-3.8c-2-2.6-3-5.9-3-10.1V65.9z
		 M321.1,66.4c0,2.9,0.6,5.3,1.8,7c1.2,1.8,3,2.6,5.6,2.6c1.6,0,2.9-0.4,4-1.1c1.1-0.7,1.9-1.7,2.6-3V58.5c-0.7-1.2-1.6-2.1-2.6-2.8
		c-1.1-0.7-2.4-1.1-3.9-1.1c-2.5,0-4.4,1-5.6,3.1s-1.8,4.8-1.8,8.1V66.4z"/>
	<path class="st1" d="M359.6,80.4c-4,0-7.2-1.3-9.6-4c-2.4-2.7-3.6-6.2-3.6-10.4v-1.2c0-4.1,1.2-7.5,3.7-10.3s5.3-4.1,8.7-4.1
		c3.9,0,6.8,1.2,8.8,3.5c2,2.4,3,5.5,3,9.4v3.3h-18.8l-0.1,0.1c0.1,2.8,0.8,5,2.1,6.8s3.2,2.7,5.7,2.7c1.8,0,3.3-0.3,4.7-0.8
		c1.3-0.5,2.5-1.2,3.5-2.1l2.1,3.4c-1,1-2.4,1.9-4.1,2.6C364.1,80,362,80.4,359.6,80.4z M358.8,54.5c-1.8,0-3.3,0.7-4.5,2.2
		c-1.2,1.5-2,3.3-2.3,5.6l0.1,0.1h13.3v-0.7c0-2.1-0.6-3.8-1.7-5.2C362.6,55.2,361,54.5,358.8,54.5z"/>
	<path class="st1" d="M389.7,55.5l-2.7-0.2c-1.4,0-2.6,0.3-3.5,1c-1,0.7-1.7,1.6-2.2,2.8v20.6H376V50.9h4.7l0.5,4.2
		c0.8-1.5,1.8-2.7,3-3.5c1.2-0.8,2.6-1.3,4.2-1.3c0.4,0,0.8,0,1.1,0.1s0.7,0.1,0.9,0.2L389.7,55.5z"/>
</g>
<g>
	<g>
		<polygon class="st0" points="73.5,16.2 76.4,11.2 70.6,11.2 70.5,11.2 67.6,6.2 64.7,11.2 58.8,11.2 61.8,16.4 58.9,21.4
			64.7,21.4 67.6,26.4 70.5,21.4 76.5,21.4 		"/>
		<path class="st1" d="M51.7,59c0,6.6-5.4,12-12,12c-6.6,0-12-5.4-12-12c0-6.6,5.4-12,12-12C46.3,47.1,51.7,52.4,51.7,59"/>
		<path class="st1" d="M18.8,55v-9.6H4.2v10.1c0,23,12.6,35.4,32.6,36.4V78.5C25.6,77.4,18.8,69.2,18.8,55"/>
		<path class="st0" d="M60.6,30.6v25c0,14.1-6.8,21.9-18.1,23V92c19.9-1.1,32.6-13.5,32.6-37.1V30.6H60.6z"/>
	</g>
</g>
<g>
	<path d="M260.8,106.3V90.4h5.2c1.7,0,3,0.4,3.9,1.1c0.9,0.7,1.4,1.8,1.4,3.2c0,0.7-0.2,1.3-0.7,1.9c-0.5,0.6-1,1-1.8,1.2
		c1,0.2,1.7,0.7,2.3,1.4c0.6,0.7,0.8,1.6,0.8,2.6c0,1.5-0.5,2.6-1.4,3.3c-0.9,0.8-2.2,1.2-3.8,1.2H260.8z M262.9,97.2h3.5
		c0.8,0,1.5-0.2,2-0.7c0.5-0.4,0.8-1.1,0.8-1.8c0-0.9-0.3-1.5-0.8-1.9s-1.3-0.6-2.3-0.6h-3V97.2z M262.9,98.9v5.8h3.7
		c1,0,1.7-0.2,2.3-0.7c0.5-0.5,0.8-1.2,0.8-2.1c0-0.9-0.2-1.7-0.7-2.2c-0.5-0.5-1.2-0.8-2.1-0.8H262.9z"/>
	<path d="M278.3,101.9l0.4,1.5h0.1l2.9-8.9h2.4l-5,13.7c-0.3,0.8-0.7,1.5-1.3,2.1s-1.3,0.9-2.3,0.9c-0.2,0-0.4,0-0.7-0.1
		c-0.3,0-0.5-0.1-0.6-0.1l0.2-1.7c0,0,0.1,0,0.4,0c0.3,0,0.5,0,0.6,0c0.5,0,0.8-0.2,1.1-0.6c0.3-0.4,0.5-0.9,0.7-1.4l0.5-1.2
		l-4.4-11.6h2.4L278.3,101.9z"/>
	<path d="M298.4,90.4h2.2v11.5c0,1.4-0.5,2.6-1.4,3.4c-0.9,0.8-2.1,1.3-3.5,1.3c-1.5,0-2.8-0.4-3.7-1.2s-1.3-1.9-1.3-3.4l0-0.1h2.1
		c0,1,0.2,1.7,0.8,2.2s1.2,0.7,2.1,0.7c0.8,0,1.4-0.3,1.9-0.8c0.5-0.5,0.8-1.3,0.8-2.2V90.4z"/>
	<path d="M308.8,106.5c-1.7,0-3-0.5-3.9-1.6c-1-1.1-1.5-2.5-1.5-4.3v-0.5c0-1.7,0.5-3.1,1.5-4.2c1-1.1,2.2-1.7,3.6-1.7
		c1.6,0,2.8,0.5,3.6,1.4c0.8,1,1.2,2.2,1.2,3.9v1.3h-7.7l0,0.1c0,1.1,0.3,2.1,0.9,2.8c0.6,0.7,1.3,1.1,2.3,1.1
		c0.7,0,1.4-0.1,1.9-0.3c0.6-0.2,1-0.5,1.4-0.9l0.8,1.4c-0.4,0.4-1,0.8-1.7,1C310.7,106.4,309.8,106.5,308.8,106.5z M308.5,95.9
		c-0.7,0-1.3,0.3-1.9,0.9c-0.5,0.6-0.8,1.4-0.9,2.3l0,0.1h5.5v-0.3c0-0.8-0.2-1.6-0.7-2.1C310.1,96.2,309.4,95.9,308.5,95.9z"/>
	<path d="M321.4,96.4l-1.1-0.1c-0.6,0-1,0.1-1.4,0.4c-0.4,0.3-0.7,0.6-0.9,1.1v8.5h-2.2V94.5h1.9l0.2,1.7c0.3-0.6,0.8-1.1,1.2-1.4
		c0.5-0.3,1.1-0.5,1.7-0.5c0.2,0,0.3,0,0.5,0c0.1,0,0.3,0.1,0.4,0.1L321.4,96.4z"/>
	<path d="M331,104.6c-0.4,0.6-0.9,1.1-1.4,1.5s-1.3,0.5-2,0.5c-1.3,0-2.3-0.4-3-1.2c-0.7-0.8-1.1-2.1-1.1-3.9v-7h2.2v7
		c0,1.3,0.2,2.1,0.6,2.6c0.4,0.5,1,0.7,1.7,0.7c0.8,0,1.4-0.2,1.9-0.5c0.5-0.3,0.9-0.8,1.1-1.3v-8.5h2.2v11.9h-1.9L331,104.6z"/>
	<path d="M343.1,103.2c0-0.5-0.2-0.9-0.5-1.2s-1-0.6-2.1-0.8c-1.4-0.3-2.5-0.7-3.2-1.3s-1.1-1.3-1.1-2.2c0-1,0.4-1.8,1.2-2.5
		c0.8-0.7,1.9-1,3.2-1c1.4,0,2.5,0.4,3.3,1.1c0.8,0.7,1.2,1.6,1.2,2.6l0,0.1H343c0-0.5-0.2-1-0.7-1.4c-0.4-0.4-1-0.6-1.7-0.6
		c-0.8,0-1.3,0.2-1.7,0.5s-0.6,0.7-0.6,1.2c0,0.5,0.2,0.8,0.5,1.1c0.3,0.3,1,0.5,2,0.7c1.5,0.3,2.6,0.8,3.3,1.3
		c0.7,0.6,1.1,1.3,1.1,2.2c0,1.1-0.4,1.9-1.3,2.6s-2,1-3.3,1c-1.5,0-2.7-0.4-3.6-1.1c-0.9-0.8-1.3-1.7-1.2-2.7l0-0.1h2.1
		c0,0.8,0.3,1.3,0.9,1.7c0.5,0.4,1.2,0.5,1.9,0.5c0.8,0,1.4-0.2,1.8-0.5C342.9,104.1,343.1,103.7,343.1,103.2z"/>
	<path d="M355.2,106.3c-0.1-0.4-0.1-0.7-0.2-0.9s-0.1-0.5-0.1-0.8c-0.4,0.6-0.9,1-1.6,1.4c-0.6,0.4-1.3,0.6-2.1,0.6
		c-1.2,0-2.2-0.3-2.8-0.9c-0.6-0.6-1-1.5-1-2.6c0-1.1,0.5-2,1.4-2.7c0.9-0.6,2.2-1,3.7-1h2.3v-1.2c0-0.7-0.2-1.2-0.6-1.6
		c-0.4-0.4-1-0.6-1.8-0.6c-0.7,0-1.3,0.2-1.7,0.5c-0.4,0.4-0.7,0.8-0.7,1.3h-2.1l0-0.1c0-0.9,0.4-1.6,1.2-2.4c0.9-0.7,2-1.1,3.3-1.1
		c1.3,0,2.4,0.3,3.2,1s1.2,1.7,1.2,3v5.7c0,0.4,0,0.8,0.1,1.2c0,0.4,0.1,0.8,0.2,1.2H355.2z M351.6,104.7c0.8,0,1.5-0.2,2.1-0.6
		c0.6-0.4,1-0.9,1.2-1.4v-1.9h-2.4c-0.9,0-1.6,0.2-2.1,0.7c-0.5,0.4-0.8,1-0.8,1.5c0,0.5,0.2,0.9,0.5,1.2
		C350.5,104.6,351,104.7,351.6,104.7z"/>
	<path d="M362.6,106.3h-2.2V89.2h2.2V106.3z"/>
	<path d="M370.8,106.5c-1.7,0-3-0.5-3.9-1.6c-1-1.1-1.5-2.5-1.5-4.3v-0.5c0-1.7,0.5-3.1,1.5-4.2c1-1.1,2.2-1.7,3.6-1.7
		c1.6,0,2.8,0.5,3.6,1.4c0.8,1,1.2,2.2,1.2,3.9v1.3h-7.7l0,0.1c0,1.1,0.3,2.1,0.9,2.8c0.6,0.7,1.3,1.1,2.3,1.1
		c0.7,0,1.4-0.1,1.9-0.3c0.6-0.2,1-0.5,1.4-0.9l0.8,1.4c-0.4,0.4-1,0.8-1.7,1C372.7,106.4,371.8,106.5,370.8,106.5z M370.5,95.9
		c-0.7,0-1.3,0.3-1.9,0.9c-0.5,0.6-0.8,1.4-0.9,2.3l0,0.1h5.5v-0.3c0-0.8-0.2-1.6-0.7-2.1C372.1,96.2,371.4,95.9,370.5,95.9z"/>
	<path d="M379.7,94.5l0.2,1.6c0.4-0.6,0.9-1,1.5-1.3c0.6-0.3,1.3-0.5,2.1-0.5c0.8,0,1.5,0.2,2,0.5c0.6,0.4,1,0.9,1.3,1.6
		c0.4-0.7,0.9-1.2,1.5-1.6c0.6-0.4,1.3-0.6,2.1-0.6c1.2,0,2.2,0.4,2.9,1.2c0.7,0.8,1.1,2.1,1.1,3.7v7.1h-2.2v-7.1
		c0-1.2-0.2-2-0.6-2.5c-0.4-0.5-1-0.7-1.8-0.7c-0.7,0-1.3,0.3-1.8,0.8c-0.5,0.5-0.7,1.2-0.8,1.9v0.1v7.5h-2.2v-7.1
		c0-1.1-0.2-1.9-0.6-2.4c-0.4-0.5-1-0.8-1.8-0.8c-0.7,0-1.2,0.1-1.6,0.4s-0.7,0.6-1,1.1v8.8h-2.2V94.5H379.7z"/>
	<path d="M415,90.4v10.8c0,1.7-0.6,3.1-1.7,4c-1.1,0.9-2.6,1.4-4.4,1.4c-1.8,0-3.2-0.5-4.3-1.4c-1.1-0.9-1.6-2.3-1.6-4V90.4h2.2
		v10.8c0,1.2,0.3,2.1,1,2.7c0.7,0.6,1.6,0.9,2.7,0.9c1.2,0,2.1-0.3,2.9-0.9c0.7-0.6,1.1-1.5,1.1-2.7V90.4H415z"/>
</g>
</svg>