<svg version="1.1"  xmlns="http://www.w3.org/2000/svg" xmlns:xlink="http://www.w3.org/1999/xlink" x="0px" y="0px"
	 viewBox="0 0 262.3 303.9" style="enable-background:new 0 0 262.3 303.9;" xml:space="preserve">
<style type="text/css">
	.st0{fill:#FFFFFF;}
</style>
<g>
	<polygon class="st0" points="249,34.8 259.1,17.4 239,17.4 238.6,17.4 228.5,0 218.4,17.4 197.9,17.4 208.4,35.5 198.3,52.8
		218.4,52.8 228.5,70.2 238.6,52.8 259.4,52.8 	"/>
	<path class="st0" d="M173.1,183.6c0,22.9-18.6,41.5-41.5,41.5s-41.5-18.6-41.5-41.5s18.6-41.5,41.5-41.5
		C154.5,142,173.1,160.6,173.1,183.6"/>
	<path class="st0" d="M59,169.6v-33.2H8.4v35.2c0,80,43.9,123,113.4,126.5v-46.8C82.5,247.4,59,219,59,169.6"/>
	<path class="st0" d="M204.2,84.8v86.9c0,49.1-23.7,76.1-62.8,79.8v46.6c69.3-3.9,113.4-46.9,113.4-128.9V84.8H204.2z"/>
</g>
</svg>